<?xml version="1.0" encoding="UTF-8"?>
<svg id="_layer_1" xmlns="http://www.w3.org/2000/svg" viewBox="0 0 862.27 126.17">
  <defs>
    <style>
      .cls-1 {
        fill-rule: evenodd;
      }

      .cls-1, .cls-2 {
        fill: #00a39b;
      }
    </style>
  </defs>
  <g>
    <path class="cls-1" d="M0,79.78c31.16-8.35,31.16,53.97,62.31,45.62v-62.32C31.15,71.43,31.15,9.12,0,17.47,0,17.47,0,79.78,0,79.78Z"/>
    <path class="cls-1" d="M62.31,63.09c31.16-8.35,31.16,53.96,62.31,45.62v-62.31C93.46,54.75,93.46-7.56,62.31.79v62.31h0Z"/>
    <rect class="cls-2" x="107.93" width="16.7" height="16.7"/>
    <rect class="cls-2" y="109.48" width="16.7" height="16.69"/>
    <rect class="cls-2" width="8.35" height="8.35"/>
  </g>
  <g>
    <path class="cls-2" d="M198.86,92.68c-4.39,0-8.46-.6-12.1-1.79-3.58-1.16-6.52-2.39-8.75-3.63-3.08-1.73-3.52-2.02-3.71-2.16l-.92-.74,4.13-5.42.96.74c.48.37,1.31.94,2.46,1.7,1.11.74,2.55,1.51,4.27,2.29,1.7.78,3.74,1.44,6.08,1.98,2.32.53,4.97.8,7.88.8,6.4,0,11.3-1.52,14.56-4.53,3.28-3.03,4.88-6.71,4.88-11.28,0-3.55-1.02-6.48-3.11-8.95-2.16-2.55-4.9-4.82-8.17-6.73-3.36-1.97-6.8-3.79-10.23-5.43-3.74-1.85-7.15-3.77-10.13-5.7-3.1-2-5.59-4.33-7.41-6.92-1.88-2.67-2.84-5.88-2.84-9.53s1.04-6.76,3.09-9.57c2.02-2.78,4.82-4.99,8.33-6.58,3.47-1.57,7.44-2.36,11.8-2.36s8.11.53,11.14,1.58c3,1.04,5.39,2.16,7.1,3.33,2.29,1.56,2.84,2.1,3.08,2.41l.53.71-3.7,5.18-1.01-.94c-.55-.52-1.55-1.27-2.96-2.24-1.37-.94-3.23-1.82-5.54-2.62-2.29-.79-5.14-1.18-8.47-1.18-5.34,0-9.56,1.14-12.54,3.39-2.92,2.2-4.34,5.15-4.34,9.03,0,2.6.74,4.8,2.27,6.72,1.59,2,3.76,3.82,6.46,5.42,2.82,1.67,5.94,3.33,9.27,4.92,2.59,1.23,5.27,2.61,7.97,4.08,2.76,1.5,5.36,3.28,7.73,5.29,2.42,2.05,4.41,4.48,5.9,7.21,1.52,2.79,2.29,6.07,2.29,9.74,0,3.06-.63,5.95-1.87,8.61-1.24,2.65-3.05,5-5.37,6.98-2.31,1.98-5.11,3.53-8.32,4.6-3.19,1.07-6.79,1.61-10.71,1.61l.02-.02Z"/>
    <polygon class="cls-2" points="253.29 116.01 264.78 90.03 244.36 39.98 251.2 39.98 268.33 82.73 286.72 39.98 293.53 39.98 260.03 116.01 253.29 116.01"/>
    <path class="cls-2" d="M353.56,91.25v-31.02c0-5.61-1.27-9.63-3.78-11.94-2.57-2.37-5.76-3.52-9.77-3.52-2.61,0-5.18.78-7.63,2.31-2.49,1.56-4.57,3.71-6.18,6.39-1.6,2.65-2.42,5.66-2.42,8.95v28.82h-6.22v-51.27h6.22v6.37c.22-.26.45-.53.7-.8,1.72-1.89,3.96-3.54,6.65-4.91,2.74-1.39,5.77-2.09,9-2.09s6.24.7,9.25,2.07c3.05,1.4,5.6,3.64,7.56,6.66,1.97,3.02,2.96,6.96,2.96,11.7v32.27h-6.34Z"/>
    <path class="cls-2" d="M412.01,92.68c-5.34,0-9.93-1.28-13.65-3.81-3.7-2.51-6.54-5.93-8.43-10.15-1.87-4.16-2.81-8.78-2.81-13.73s.97-9.42,2.89-13.38c1.93-3.99,4.79-7.2,8.47-9.54,3.7-2.34,8.19-3.52,13.35-3.52,4.61,0,8.7,1.09,12.15,3.25,3.44,2.15,6.16,5.12,8.08,8.83,1.91,3.69,2.87,7.94,2.87,12.64,0,.4-.02.8-.07,1.18-.03.29-.05.57-.05.84v1.21h-41.21c.14,3.23.81,6.34,2.02,9.24,1.34,3.21,3.4,5.85,6.14,7.85,2.71,1.98,6.21,2.98,10.42,2.98,3.39,0,6.2-.57,8.33-1.7,2.16-1.14,3.88-2.49,5.1-4.01,1.25-1.55,2.12-2.91,2.59-4.02l.57-1.36,5.69,3.86-.61.98c-1.64,2.66-3.49,4.94-5.51,6.78-2.06,1.87-4.46,3.29-7.11,4.2-2.64.91-5.75,1.38-9.23,1.38h0ZM428.22,60.27c-.2-2.05-.73-4.19-1.59-6.38-1-2.55-2.7-4.75-5.05-6.53-2.31-1.75-5.59-2.64-9.74-2.64-4.41,0-7.92.87-10.41,2.58-2.51,1.73-4.35,3.89-5.47,6.45-.96,2.19-1.6,4.38-1.92,6.52h34.19,0Z"/>
    <path class="cls-2" d="M463.1,91.25v-51.27h6.11v5.09c1.34-1.61,3.12-3.07,5.29-4.36,2.42-1.43,5.24-2.16,8.38-2.16,2.43,0,4.52.3,6.23.9,1.8.64,2.97,1.26,3.67,1.95l.64.64-2.96,5.45-1.13-.89c-.31-.24-1-.64-2.56-1.17-1.25-.43-2.82-.65-4.67-.65-2.48,0-4.62.87-6.52,2.65-1.99,1.86-3.57,4.11-4.69,6.68s-1.68,4.93-1.68,7.02v30.13h-6.11,0Z"/>
    <path class="cls-2" d="M537.19,117.32c-4.31,0-8.03-.5-11.06-1.49-3.04-.99-5.56-2.27-7.49-3.8s-3.4-3.11-4.38-4.68l-.58-.94,5.5-4.12.7,1.09c.59.91,1.49,2,2.68,3.23,1.12,1.16,2.84,2.19,5.11,3.08,2.29.89,5.5,1.35,9.53,1.35s7.24-.92,9.84-2.73c2.62-1.83,4.63-4.28,5.95-7.27,1.35-3.04,2.04-6.38,2.04-9.92v-7.31c-.2.26-.4.52-.62.79-1.7,2.08-4.07,3.96-7.05,5.59-3.02,1.66-6.64,2.5-10.76,2.5-4.5,0-8.76-1.05-12.67-3.12-3.93-2.08-7.14-5.17-9.55-9.19-2.4-4.02-3.62-8.97-3.62-14.72s1.22-10.7,3.62-14.72c2.4-4.02,5.61-7.12,9.54-9.22,3.91-2.09,8.18-3.15,12.68-3.15,4.11,0,7.73.82,10.77,2.43,3,1.59,5.4,3.44,7.14,5.49.18.21.35.43.52.63v-7.13h6.11v51.49c0,5.5-1.08,10.23-3.22,14.06-2.15,3.85-5.07,6.81-8.69,8.8-3.6,1.97-7.65,2.98-12.04,2.98h0ZM536.24,44.78c-3.18,0-6.29.84-9.23,2.49-2.94,1.66-5.37,4.07-7.23,7.16-1.86,3.08-2.8,6.86-2.8,11.22s.94,8.14,2.8,11.22c1.86,3.09,4.29,5.49,7.23,7.13,2.93,1.64,6.04,2.46,9.23,2.46,3.53,0,6.72-.84,9.49-2.5s4.99-4.06,6.6-7.14c1.63-3.1,2.45-6.86,2.45-11.16s-.82-8.06-2.45-11.16c-1.61-3.08-3.84-5.49-6.61-7.18-2.77-1.68-5.96-2.53-9.49-2.53h.01Z"/>
    <path class="cls-2" d="M613.53,92.68c-5.34,0-9.93-1.28-13.65-3.81-3.7-2.51-6.54-5.93-8.43-10.15-1.87-4.16-2.81-8.78-2.81-13.73s.97-9.42,2.89-13.38c1.93-3.99,4.79-7.2,8.47-9.54,3.7-2.34,8.19-3.52,13.35-3.52,4.61,0,8.7,1.09,12.15,3.25,3.44,2.15,6.16,5.12,8.08,8.83,1.91,3.69,2.87,7.94,2.87,12.64,0,.4-.02.8-.07,1.18-.03.29-.05.57-.05.84v1.21h-41.21c.14,3.23.81,6.34,2.02,9.24,1.34,3.21,3.4,5.85,6.14,7.85,2.71,1.98,6.21,2.98,10.42,2.98,3.39,0,6.2-.57,8.33-1.7,2.16-1.15,3.88-2.49,5.1-4.01,1.25-1.55,2.12-2.91,2.59-4.02l.57-1.36,5.69,3.86-.61.98c-1.64,2.66-3.49,4.94-5.51,6.78-2.06,1.87-4.46,3.29-7.11,4.2-2.64.91-5.75,1.38-9.23,1.38h0ZM629.73,60.27c-.2-2.05-.73-4.19-1.59-6.38-1-2.55-2.7-4.75-5.05-6.53-2.31-1.75-5.59-2.64-9.74-2.64-4.41,0-7.92.87-10.41,2.58-2.51,1.73-4.35,3.89-5.47,6.45-.96,2.19-1.6,4.38-1.92,6.52h34.19-.01Z"/>
    <path class="cls-2" d="M680.08,92.68c-3.21,0-5.98-1.11-8.25-3.29-2.28-2.19-3.43-5.7-3.43-10.42v-32.77h-10.65v-6.22h10.65v-20.05h6.22v20.05h13.92v6.22h-13.92v31.82c0,3.27.57,5.52,1.69,6.69s2.39,1.74,3.89,1.74c1.58,0,2.78-.25,3.48-.74,1.12-.78,1.34-1.01,1.37-1.03l.99-1.07.91,1.12,2.93,3.98-.73.74c-.16.16-.49.46-1.47,1.15-.77.54-1.79,1.03-3.02,1.44-1.26.42-2.8.63-4.57.63h0Z"/>
    <path class="cls-2" d="M715.24,91.25v-51.27h6.22v51.27h-6.22ZM718.41,20.02c-1.4,0-2.61-.5-3.59-1.49-.98-.98-1.48-2.19-1.48-3.59s.51-2.68,1.53-3.66c1-.98,2.19-1.47,3.55-1.47.92,0,1.79.23,2.6.69.78.46,1.42,1.06,1.9,1.79.51.77.76,1.67.76,2.65,0,1.41-.53,2.63-1.57,3.61-1.02.97-2.26,1.46-3.69,1.46h-.01Z"/>
    <path class="cls-2" d="M774.11,92.68c-3.68,0-7.4-1-11.07-2.97-3.68-1.97-6.8-5.01-9.26-9.03-2.47-4.03-3.72-9.1-3.72-15.1s1.25-11.11,3.72-15.1c2.46-3.97,5.58-6.99,9.26-8.97,3.68-1.97,7.4-2.97,11.07-2.97,3.05,0,5.77.4,8.1,1.2,2.33.8,4.17,1.64,5.62,2.57,1.94,1.24,2.51,1.75,2.78,2.06l.62.7-3.61,5.32-1.03-1.04c-.3-.3-.95-.83-1.99-1.62-.95-.72-2.28-1.4-3.95-2.03-1.64-.62-3.68-.93-6.06-.93-2.83,0-5.7.8-8.51,2.37-2.81,1.57-5.18,3.93-7.02,7.01-1.84,3.07-2.77,6.91-2.77,11.43s.93,8.37,2.78,11.46c1.84,3.09,4.2,5.46,7.02,7.03s5.68,2.37,8.52,2.37c3.59,0,6.47-.55,8.55-1.62,2.95-1.52,3.7-2.05,3.89-2.21l1.01-.84,3.7,5.32-.84.71c-.26.22-.83.58-2.71,1.58-1.51.79-3.48,1.54-5.85,2.23-2.42.7-5.18,1.06-8.22,1.06h-.03Z"/>
    <path class="cls-2" d="M837.73,92.68c-4.5,0-8.76-1.05-12.67-3.12-3.93-2.08-7.14-5.17-9.55-9.19-2.4-4.02-3.62-8.98-3.62-14.72s1.22-10.7,3.62-14.72c2.4-4.02,5.61-7.12,9.54-9.22,3.91-2.09,8.18-3.15,12.68-3.15,4.11,0,7.73.82,10.77,2.43,3,1.59,5.4,3.44,7.14,5.49.18.21.35.43.52.63v-7.13h6.11v51.27h-6.11v-7.45c-.2.26-.4.52-.62.79-1.7,2.08-4.07,3.96-7.05,5.59-3.02,1.66-6.64,2.5-10.76,2.5h0ZM837.37,44.78c-3.18,0-6.29.84-9.23,2.49-2.94,1.66-5.37,4.07-7.23,7.16-1.86,3.08-2.8,6.86-2.8,11.22s.94,8.14,2.8,11.22c1.86,3.09,4.29,5.49,7.23,7.13,2.93,1.64,6.04,2.46,9.23,2.46,3.53,0,6.72-.84,9.49-2.5s4.99-4.06,6.6-7.14c1.63-3.1,2.45-6.86,2.45-11.16s-.82-8.06-2.45-11.16c-1.61-3.08-3.84-5.49-6.61-7.18-2.77-1.68-5.96-2.53-9.49-2.53h.01Z"/>
  </g>
</svg>
