<?xml version="1.0" encoding="UTF-8"?><svg id="_layer_2" xmlns="http://www.w3.org/2000/svg" viewBox="0 0 861.5 872.97"><defs><style>.cls-1,.cls-2{fill:#00a99d;}.cls-2{stroke:#00a99d;stroke-miterlimit:10;}</style></defs><g id="_レイヤー_2-2"><rect class="cls-2" x="746.5" y="2.47" width="112" height="112"/><rect class="cls-2" x=".5" y="760.47" width="112" height="112"/><rect class="cls-2" x="1" y="2.97" width="55" height="55"/><path class="cls-1" d="M2.5,549.33c19.66-4.09,41-5.05,63,0,142.76,32.79,151.69,281.91,297,318,18.92,4.7,41.12,6.03,67,1v-431c-13.55,4.52-34.16,9.35-58,6C225.77,422.83,196.5,130.08,56.5,115.33c-12.44-1.31-30.81-.96-54,8v426Z"/><path class="cls-1" d="M434.5,434.56c19.66-4.09,41-5.05,63,0,142.76,32.79,151.69,281.91,297,318,18.92,4.7,41.12,6.03,67,1v-431c-13.55,4.52-34.16,9.35-58,6C657.77,308.07,628.5,15.31,488.5.56c-12.44-1.31-30.81-.96-54,8v426Z"/></g></svg>
